<svg width="200" height="200" viewBox="0 0 200 200" fill="none" xmlns="http://www.w3.org/2000/svg">
<rect width="200" height="200" rx="48" fill="black"/>
<path fill-rule="evenodd" clip-rule="evenodd" d="M99.9994 31.5C61.3449 31.5 30 62.943 30 101.734C30 132.767 50.057 159.092 77.8699 168.38C81.3671 169.032 82.6514 166.857 82.6514 165.002C82.6514 163.327 82.5865 157.794 82.5564 151.926C63.0825 156.174 58.9732 143.639 58.9732 143.639C55.789 135.521 51.2011 133.362 51.2011 133.362C44.8489 129.003 51.6798 129.094 51.6798 129.094C58.7078 129.588 62.4101 136.331 62.4101 136.331C68.6534 147.066 78.7856 143.963 82.7801 142.17C83.4083 137.631 85.2224 134.531 87.2243 132.777C71.6765 131.004 55.3311 124.98 55.3311 98.0683C55.3311 90.4003 58.0668 84.135 62.5446 79.2153C61.8167 77.4474 59.4207 70.304 63.2216 60.6297C63.2216 60.6297 69.0985 58.7421 82.4752 67.829C88.0601 66.2717 94.0494 65.489 99.9994 65.4622C105.946 65.489 111.939 66.2694 117.534 67.8267C130.895 58.7398 136.765 60.6274 136.765 60.6274C140.575 70.3005 138.179 77.4451 137.452 79.2129C141.94 84.1326 144.656 90.398 144.656 98.066C144.656 125.042 128.281 130.98 112.693 132.72C115.205 134.9 117.442 139.175 117.442 145.727C117.442 155.124 117.361 162.687 117.361 165.001C117.361 166.87 118.623 169.06 122.17 168.37C149.966 159.073 170 132.755 170 101.734C169.999 62.9454 138.657 31.5 99.9994 31.5Z" fill="white"/>
<path d="M56.5123 132.34C56.3582 132.689 55.811 132.793 55.3126 132.555C54.8026 132.327 54.5186 131.851 54.6832 131.501C54.8339 131.141 55.3821 131.042 55.8887 131.283C56.3987 131.512 56.6885 131.992 56.5112 132.341L56.5123 132.34ZM59.3476 135.514C59.015 135.824 58.3624 135.68 57.9196 135.188C57.4605 134.7 57.3747 134.045 57.7144 133.73C58.0598 133.42 58.6927 133.567 59.1517 134.055C59.6085 134.551 59.6989 135.2 59.3488 135.515L59.3476 135.514ZM62.1088 139.558C61.6799 139.858 60.9774 139.578 60.5439 138.953C60.115 138.327 60.115 137.577 60.5555 137.278C60.9879 136.978 61.6799 137.249 62.1204 137.868C62.5469 138.502 62.5469 139.253 62.1088 139.558ZM65.8888 143.467C65.5063 143.891 64.6879 143.777 64.0898 143.199C63.4789 142.633 63.3085 141.827 63.6922 141.404C64.0817 140.978 64.9035 141.096 65.5051 141.671C66.116 142.236 66.3003 143.043 65.8911 143.466L65.8888 143.467ZM71.105 145.736C70.9346 146.286 70.1487 146.536 69.3547 146.301C68.563 146.06 68.0448 145.417 68.2071 144.861C68.3694 144.306 69.1611 144.047 69.9598 144.297C70.7515 144.537 71.2696 145.176 71.105 145.736ZM76.8347 146.156C76.8544 146.735 76.1821 147.214 75.351 147.226C74.5129 147.246 73.8348 146.776 73.8267 146.206C73.8267 145.621 74.4851 145.147 75.322 145.131C76.1532 145.116 76.8359 145.581 76.8359 146.155L76.8347 146.156ZM82.1646 145.246C82.2643 145.81 81.6858 146.391 80.8594 146.545C80.0479 146.697 79.2945 146.345 79.1902 145.786C79.0905 145.207 79.6793 144.626 80.4907 144.476C81.3184 144.333 82.0602 144.673 82.1646 145.246Z" fill="white"/>
</svg>
