<svg width="200" height="200" viewBox="0 0 200 200" fill="none" xmlns="http://www.w3.org/2000/svg">
<g clip-path="url(#clip0_26_253)">
<rect width="200" height="200" rx="48" fill="url(#paint0_radial_26_253)"/>
<rect width="200" height="200" rx="48" fill="url(#paint1_radial_26_253)"/>
<path d="M100.007 26C79.9096 26 77.3874 26.0879 69.4939 26.4471C61.6159 26.8078 56.2386 28.055 51.5333 29.885C46.6662 31.7751 42.5376 34.3034 38.4244 38.4181C34.3081 42.5313 31.7798 46.6599 29.8835 51.5254C28.0489 56.2321 26.8001 61.611 26.4455 69.4858C26.0925 77.3791 26 79.9028 26 100C26 120.097 26.0894 122.612 26.4471 130.505C26.8094 138.383 28.0566 143.76 29.885 148.465C31.7767 153.332 34.305 157.461 38.4198 161.574C42.5315 165.69 46.6601 168.225 51.5241 170.115C56.2324 171.945 61.6113 173.192 69.4878 173.553C77.3812 173.912 79.9019 174 99.9977 174C120.097 174 122.611 173.912 130.504 173.553C138.382 173.192 143.766 171.945 148.474 170.115C153.34 168.225 157.462 165.69 161.574 161.574C165.69 157.461 168.219 153.332 170.115 148.467C171.934 143.76 173.183 138.381 173.553 130.507C173.908 122.613 174 120.097 174 100C174 79.9028 173.908 77.3807 173.553 69.4873C173.183 61.6094 171.934 56.2321 170.115 51.5269C168.219 46.6599 165.69 42.5313 161.574 38.4181C157.458 34.3019 153.341 31.7735 148.47 29.885C143.752 28.055 138.372 26.8078 130.494 26.4471C122.6 26.0879 120.087 26 99.9838 26H100.007ZM93.3684 39.3354C95.3387 39.3323 97.5372 39.3354 100.007 39.3354C119.765 39.3354 122.107 39.4063 129.909 39.7609C137.124 40.0908 141.04 41.2964 143.649 42.3093C147.102 43.6505 149.564 45.2539 152.153 47.8439C154.743 50.4339 156.346 52.9005 157.691 56.3539C158.703 58.9593 159.911 62.8751 160.239 70.0901C160.594 77.891 160.671 80.2343 160.671 99.983C160.671 119.732 160.594 122.075 160.239 129.876C159.909 137.091 158.703 141.007 157.691 143.612C156.349 147.066 154.743 149.525 152.153 152.113C149.563 154.703 147.104 156.306 143.649 157.648C141.043 158.665 137.124 159.868 129.909 160.197C122.108 160.552 119.765 160.629 100.007 160.629C80.2472 160.629 77.9054 160.552 70.1044 160.197C62.8894 159.864 58.9735 158.659 56.3634 157.646C52.9101 156.305 50.4434 154.701 47.8534 152.111C45.2633 149.521 43.66 147.061 42.3156 143.606C41.3028 141.001 40.0956 137.085 39.7672 129.87C39.4126 122.069 39.3417 119.726 39.3417 99.9645C39.3417 80.2034 39.4126 77.8725 39.7672 70.0716C40.0971 62.8566 41.3028 58.9408 42.3156 56.3323C43.6569 52.879 45.2633 50.4123 47.8534 47.8223C50.4434 45.2323 52.9101 43.629 56.3634 42.2846C58.972 41.2671 62.8894 40.0646 70.1044 39.7332C76.931 39.4248 79.5765 39.3323 93.3684 39.3169V39.3354ZM139.508 51.6225C134.605 51.6225 130.628 55.5954 130.628 60.4994C130.628 65.4019 134.605 69.3794 139.508 69.3794C144.41 69.3794 148.388 65.4019 148.388 60.4994C148.388 55.5969 144.41 51.6194 139.508 51.6194V51.6225ZM100.007 61.9979C79.02 61.9979 62.0045 79.0133 62.0045 100C62.0045 120.987 79.02 137.994 100.007 137.994C120.994 137.994 138.003 120.987 138.003 100C138.003 79.0133 120.994 61.9979 100.007 61.9979ZM100.007 75.3333C113.629 75.3333 124.674 86.3763 124.674 100C124.674 113.622 113.629 124.667 100.007 124.667C86.3831 124.667 75.34 113.622 75.34 100C75.34 86.3763 86.3831 75.3333 100.007 75.3333Z" fill="white"/>
</g>
<defs>
<radialGradient id="paint0_radial_26_253" cx="0" cy="0" r="1" gradientUnits="userSpaceOnUse" gradientTransform="translate(53.1253 215.404) rotate(-90) scale(198.215 184.355)">
<stop stop-color="#FFDD55"/>
<stop offset="0.1" stop-color="#FFDD55"/>
<stop offset="0.5" stop-color="#FF543E"/>
<stop offset="1" stop-color="#C837AB"/>
</radialGradient>
<radialGradient id="paint1_radial_26_253" cx="0" cy="0" r="1" gradientUnits="userSpaceOnUse" gradientTransform="translate(-33.5011 14.4077) rotate(78.6806) scale(88.6028 365.225)">
<stop stop-color="#3771C8"/>
<stop offset="0.128" stop-color="#3771C8"/>
<stop offset="1" stop-color="#6600FF" stop-opacity="0"/>
</radialGradient>
<clipPath id="clip0_26_253">
<rect width="200" height="200" rx="48" fill="white"/>
</clipPath>
</defs>
</svg>
